<svg width="56" height="56" viewBox="0 0 56 56" fill="none" xmlns="http://www.w3.org/2000/svg">
<path d="M19.7854 23.5323H25.6532V23.9965H20.3233V27.4898H25.3354V27.9539H20.3233V31.7892H25.7144V32.2534H19.7854V23.5323ZM26.1789 23.5323H26.8024L29.5651 27.3676L32.389 23.5323L36.23 18.6606L29.9196 27.7707L33.1714 32.2534H32.5235L29.5651 28.1738L26.5945 32.2534H25.9589L29.2351 27.7707L26.1789 23.5323ZM33.4037 23.9965V23.5323H40.0906V23.9965H37.01V32.2534H36.4721V23.9965H33.4037Z" fill="white"/>
<path d="M12.4445 23.5323H13.1168L22.3882 37.3395L18.5568 32.2534L13.0068 24.1919L12.9823 32.2534H12.4445V23.5323Z" fill="white"/>
<path d="M40.0363 31.6492C40.1475 31.6492 40.2286 31.5644 40.2286 31.4549C40.2286 31.3454 40.1475 31.2607 40.0363 31.2607C39.9264 31.2607 39.844 31.3454 39.844 31.4549C39.844 31.5644 39.9264 31.6492 40.0363 31.6492ZM40.5648 31.1381C40.5648 31.4615 40.799 31.6727 41.1405 31.6727C41.5042 31.6727 41.724 31.4549 41.724 31.0769V29.7458H41.4309V31.0756C41.4309 31.2855 41.3249 31.3976 41.1379 31.3976C40.9704 31.3976 40.8566 31.2933 40.8527 31.1381H40.5648ZM42.1073 31.1212C42.1282 31.4575 42.4095 31.6727 42.8281 31.6727C43.2756 31.6727 43.5555 31.4471 43.5555 31.0873C43.5555 30.8044 43.3959 30.648 43.0087 30.558L42.8007 30.5072C42.5547 30.4498 42.4553 30.3729 42.4553 30.2386C42.4553 30.0691 42.6097 29.9583 42.8412 29.9583C43.061 29.9583 43.2128 30.0665 43.2402 30.2399H43.5254C43.5084 29.9231 43.2285 29.7002 42.8451 29.7002C42.433 29.7002 42.1583 29.9231 42.1583 30.2582C42.1583 30.5345 42.314 30.6988 42.6554 30.7783L42.8988 30.837C43.1487 30.8957 43.2586 30.9817 43.2586 31.1251C43.2586 31.292 43.0859 31.4132 42.8504 31.4132C42.5979 31.4132 42.4226 31.2998 42.3977 31.1212H42.1073Z" fill="white"/>
</svg>
