<svg width="56" height="56" viewBox="0 0 56 56" fill="none" xmlns="http://www.w3.org/2000/svg">
<path d="M12.4444 12.4445H43.5556V43.5556H12.4444V12.4445Z" fill="#017ACB"/>
<path d="M27.3827 23.9653H28.875V26.5417H24.8403V38.0042L24.7333 38.0334C24.5875 38.0723 22.6674 38.0723 22.2542 38.0285L21.9236 37.9994V26.5417H17.8889V23.9653L19.1674 23.9508C19.8674 23.941 21.666 23.941 23.1632 23.9508C24.6604 23.9605 26.5563 23.9653 27.3827 23.9653ZM38.7723 36.7889C38.1792 37.416 37.5424 37.766 36.4827 38.0528C36.0209 38.1792 35.9431 38.1841 34.9028 38.1792C33.8625 38.1744 33.7799 38.1744 33.2743 38.0431C31.9667 37.7077 30.9118 37.0515 30.1924 36.123C29.9882 35.8605 29.6528 35.316 29.6528 35.248C29.6528 35.2285 29.7014 35.1848 29.7646 35.1556C29.8278 35.1265 29.959 35.0438 30.066 34.9806C30.1729 34.9174 30.3674 34.8008 30.4986 34.7327C30.6299 34.6646 31.009 34.441 31.3396 34.2417C31.6702 34.0424 31.9715 33.882 32.0056 33.882C32.0396 33.882 32.1028 33.9501 32.1514 34.0327C32.4431 34.5237 33.1236 35.1508 33.6049 35.3646C33.9014 35.491 34.5577 35.632 34.8736 35.632C35.1653 35.632 35.7 35.5056 35.9868 35.3744C36.2931 35.2334 36.4486 35.0924 36.6334 34.8105C36.7598 34.6112 36.7743 34.5577 36.7695 34.1785C36.7695 33.8285 36.75 33.7313 36.6528 33.5709C36.3806 33.1237 36.0111 32.8903 34.5139 32.2292C32.9681 31.5438 32.2729 31.1355 31.709 30.5862C31.291 30.1778 31.2084 30.066 30.9459 29.5556C30.6056 28.8994 30.5618 28.6855 30.557 27.7084C30.5521 27.023 30.5667 26.7994 30.6396 26.566C30.7417 26.216 31.0722 25.5403 31.2229 25.3702C31.534 25.0056 31.6459 24.8938 31.8646 24.714C32.5257 24.1695 33.5563 23.8098 34.5431 23.7758C34.6549 23.7758 35.0243 23.7952 35.3695 23.8195C36.3611 23.9021 37.0368 24.1452 37.6882 24.6653C38.1792 25.0542 38.9229 25.9681 38.85 26.0896C38.8014 26.1626 36.8618 27.4556 36.7354 27.4945C36.6577 27.5188 36.6042 27.4896 36.4972 27.3633C35.8361 26.5709 35.5688 26.4008 34.9271 26.3619C34.4702 26.3327 34.2271 26.3862 33.9209 26.5903C33.6 26.8042 33.4445 27.1299 33.4445 27.582C33.4493 28.2431 33.7021 28.5542 34.6354 29.016C35.2382 29.3126 35.7535 29.5556 35.7924 29.5556C35.8507 29.5556 37.1 30.1778 37.4257 30.3723C38.9424 31.2619 39.5598 32.1758 39.7202 33.7508C39.8368 34.9369 39.5014 36.0209 38.7723 36.7889Z" fill="#1E2235"/>
</svg>
