<svg width="56" height="56" viewBox="0 0 56 56" fill="none" xmlns="http://www.w3.org/2000/svg">
<path d="M35.1595 32.3313C34.4451 32.3313 33.8641 31.7498 33.8641 31.0355C33.8641 30.3212 34.4451 29.7401 35.1595 29.7401C35.8739 29.7401 36.455 30.321 36.455 31.0355C36.455 31.7499 35.8739 32.3313 35.1595 32.3313ZM20.8405 32.3313C20.1262 32.3313 19.5451 31.7498 19.5451 31.0355C19.5451 30.3212 20.1261 29.7401 20.8405 29.7401C21.5548 29.7401 22.1359 30.321 22.1359 31.0355C22.1359 31.7499 21.5549 32.3313 20.8405 32.3313ZM35.6241 24.5277L38.2132 20.0435C38.2845 19.9198 38.3038 19.7728 38.2668 19.6349C38.2298 19.4969 38.1397 19.3793 38.0161 19.3077C37.8923 19.2365 37.7453 19.2173 37.6074 19.2542C37.4695 19.2912 37.3518 19.3813 37.2803 19.5049L34.6588 24.0458C32.6539 23.131 30.4025 22.6213 28 22.6213C25.5975 22.6213 23.346 23.131 21.3413 24.0458L18.7197 19.5049C18.6481 19.3813 18.5305 19.2912 18.3926 19.2542C18.2546 19.2173 18.1077 19.2365 17.9839 19.3077C17.8602 19.3792 17.77 19.4969 17.733 19.6348C17.6961 19.7728 17.7154 19.9198 17.7867 20.0435L20.3759 24.5277C15.93 26.9457 12.8893 31.4467 12.4444 36.7642H43.5555C43.1103 31.4468 40.0696 26.9457 35.6241 24.5276" fill="#3DDB85"/>
</svg>
