<svg width="56" height="56" viewBox="0 0 56 56" fill="none" xmlns="http://www.w3.org/2000/svg">
<path d="M27.8879 12.5254C19.99 12.5254 20.4831 15.9504 20.4831 15.9504L20.4919 19.4988H28.0288V20.5642H17.4984C17.4984 20.5642 12.4445 19.991 12.4445 27.96C12.4445 35.9292 16.8556 35.6465 16.8556 35.6465H19.4882V31.9485C19.4882 31.9485 19.3463 27.5374 23.8289 27.5374H31.3042C31.3042 27.5374 35.504 27.6052 35.504 23.4784V16.6549C35.504 16.6549 36.1418 12.5254 27.8879 12.5254ZM23.7321 14.9116C23.9102 14.9115 24.0866 14.9464 24.2512 15.0145C24.4157 15.0826 24.5653 15.1825 24.6912 15.3084C24.8171 15.4343 24.917 15.5839 24.9851 15.7484C25.0532 15.913 25.0881 16.0894 25.088 16.2675C25.0881 16.4456 25.0532 16.622 24.9851 16.7866C24.917 16.9511 24.8171 17.1007 24.6912 17.2266C24.5653 17.3526 24.4157 17.4524 24.2512 17.5205C24.0866 17.5886 23.9102 17.6235 23.7321 17.6234C23.554 17.6235 23.3776 17.5886 23.213 17.5205C23.0485 17.4524 22.8989 17.3526 22.773 17.2266C22.6471 17.1007 22.5472 16.9511 22.4791 16.7866C22.411 16.622 22.3761 16.4456 22.3762 16.2675C22.3761 16.0894 22.411 15.913 22.4791 15.7484C22.5472 15.5839 22.6471 15.4343 22.773 15.3084C22.8989 15.1825 23.0485 15.0826 23.213 15.0145C23.3776 14.9464 23.554 14.9115 23.7321 14.9116Z" fill="#0891B2"/>
<path d="M28.1122 43.4747C36.0102 43.4747 35.517 40.0497 35.517 40.0497L35.5083 36.5014H27.9713V35.4361H38.5017C38.5017 35.4361 43.5556 36.0092 43.5556 28.04C43.5556 20.0709 39.1444 20.3535 39.1444 20.3535H36.5118V24.0514C36.5118 24.0514 36.6538 28.4626 32.1711 28.4626H24.6959C24.6959 28.4626 20.496 28.3948 20.496 32.5217V39.3453C20.496 39.3453 19.8583 43.4747 28.1121 43.4747H28.1122ZM32.2681 41.0887C32.0899 41.0889 31.9136 41.0539 31.749 40.9858C31.5844 40.9178 31.4349 40.8179 31.3089 40.692C31.183 40.566 31.0831 40.4165 31.0151 40.2519C30.947 40.0873 30.912 39.9109 30.9122 39.7328C30.912 39.5547 30.9469 39.3783 31.015 39.2137C31.0831 39.0492 31.183 38.8996 31.3089 38.7737C31.4348 38.6477 31.5844 38.5478 31.749 38.4797C31.9135 38.4117 32.0899 38.3767 32.2681 38.3768C32.4462 38.3767 32.6225 38.4116 32.7871 38.4797C32.9517 38.5478 33.1012 38.6477 33.2272 38.7736C33.3531 38.8996 33.453 39.0491 33.521 39.2137C33.5891 39.3782 33.6241 39.5546 33.6239 39.7327C33.6241 39.9108 33.5891 40.0872 33.521 40.2518C33.453 40.4164 33.3531 40.5659 33.2272 40.6918C33.1012 40.8178 32.9517 40.9176 32.7871 40.9857C32.6225 41.0538 32.4462 41.0888 32.2681 41.0886V41.0887Z" fill="#FACC15"/>
</svg>
