<svg width="56" height="56" viewBox="0 0 56 56" fill="none" xmlns="http://www.w3.org/2000/svg">
<path d="M28.0001 12.8285C19.41 12.8285 12.4444 19.7929 12.4444 28.3841C12.4444 35.2571 16.9016 41.088 23.0824 43.1449C23.8597 43.2888 24.1452 42.8074 24.1452 42.3965C24.1452 42.0257 24.1307 40.8002 24.1241 39.5004C19.7964 40.4414 18.8832 37.665 18.8832 37.665C18.1756 35.867 17.1561 35.389 17.1561 35.389C15.7448 34.4235 17.2625 34.4432 17.2625 34.4432C18.8246 34.553 19.6471 36.0463 19.6471 36.0463C21.0345 38.4245 23.2861 37.7369 24.1738 37.3395C24.3133 36.334 24.7165 35.6479 25.1614 35.2594C21.7063 34.866 18.0741 33.5321 18.0741 27.5717C18.0741 25.8735 18.6818 24.4857 19.677 23.3964C19.5154 23.0045 18.983 21.4224 19.8276 19.2797C19.8276 19.2797 21.1339 18.8616 24.1065 20.8743C25.3473 20.5295 26.6781 20.3567 28.0001 20.3509C29.3221 20.3567 30.6538 20.5295 31.897 20.8743C34.8661 18.8616 36.1705 19.2797 36.1705 19.2797C37.0172 21.4224 36.4846 23.0045 36.323 23.3964C37.3204 24.4857 37.9239 25.8733 37.9239 27.5717C37.9239 33.5463 34.2849 34.8619 30.8211 35.247C31.379 35.7297 31.8761 36.6764 31.8761 38.1276C31.8761 40.209 31.8581 41.8841 31.8581 42.3965C31.8581 42.8105 32.1381 43.2956 32.9267 43.1428C39.104 41.0836 43.5556 35.2548 43.5556 28.3841C43.5556 19.7929 36.5909 12.8285 28.0001 12.8285Z" fill="white"/>
<path d="M18.2705 34.9879C18.2364 35.0651 18.1146 35.0883 18.0039 35.0354C17.8911 34.9846 17.8277 34.8792 17.8643 34.8016C17.8978 34.7221 18.0196 34.6999 18.1322 34.7533C18.2453 34.8039 18.3097 34.9103 18.2705 34.9879ZM19.0357 35.6706C18.9615 35.7394 18.8165 35.7075 18.718 35.5988C18.6163 35.4903 18.5972 35.3454 18.6725 35.2755C18.749 35.2068 18.8897 35.2389 18.9917 35.3474C19.0934 35.4571 19.1132 35.6012 19.0356 35.6707L19.0357 35.6706ZM19.5607 36.5441C19.4653 36.6104 19.3094 36.5483 19.2131 36.4099C19.1178 36.2717 19.1178 36.1058 19.2152 36.0393C19.3118 35.9728 19.4653 36.0326 19.5629 36.1698C19.658 36.3105 19.658 36.4764 19.5605 36.5443L19.5607 36.5441ZM20.4483 37.5559C20.3631 37.6498 20.1815 37.6247 20.0486 37.4963C19.9126 37.3709 19.8747 37.1929 19.9602 37.0989C20.0465 37.0047 20.2291 37.0312 20.3631 37.1584C20.4981 37.2836 20.5394 37.4629 20.4485 37.5559H20.4483ZM21.5956 37.8975C21.5582 38.0192 21.3832 38.0746 21.2071 38.0229C21.0311 37.9696 20.916 37.8268 20.9515 37.7037C20.9881 37.5811 21.1638 37.5234 21.3413 37.5788C21.5169 37.6319 21.6324 37.7735 21.5958 37.8975H21.5956ZM22.9015 38.0423C22.9059 38.1706 22.7565 38.277 22.5715 38.2793C22.3855 38.2834 22.235 38.1795 22.2331 38.0534C22.2331 37.9238 22.3791 37.8184 22.5651 37.8154C22.75 37.8117 22.9015 37.9148 22.9015 38.0423ZM24.1842 37.9931C24.2064 38.1183 24.0779 38.2469 23.8942 38.2811C23.7137 38.314 23.5465 38.2368 23.5235 38.1127C23.501 37.9843 23.6321 37.8559 23.8123 37.8226C23.9962 37.7906 24.1608 37.8659 24.1842 37.9931Z" fill="white"/>
</svg>
