<svg width="483" height="378" viewBox="0 0 483 378" fill="none" xmlns="http://www.w3.org/2000/svg">
<path d="M1.6 19.6002C1.6 30.5335 1.2 115.067 0.8 207.6L0 375.734L8.4 376.667C13.0667 377.2 20 377.334 23.6 377.067L30.2667 376.667L30.6667 188.267L30.9333 0.00017564H16.2667H1.6V19.6002Z" fill="#BFF745"/>
<path d="M63.0666 5.60031C63.0666 8.80031 62.9333 93.467 62.6666 194L62.2666 376.667H76.9333C87.8666 376.667 91.5999 376.267 91.4666 374.934C91.3333 374.134 91.1999 289.334 91.1999 186.667L90.9333 0.000305876H76.9333H62.9333L63.0666 5.60031Z" fill="#BFF745"/>
<path d="M133.267 63.2007V77.334H175C232.067 77.334 245.4 78.934 264.867 88.134C299.8 104.667 320.467 140.401 320.467 184.001C320.467 204.401 317.533 216.934 308.6 235.334C295.4 262.667 274.333 280.667 245.933 288.801C239.267 290.801 229.667 291.334 186.2 291.867L134.6 292.667L133.933 306.934L133.267 321.334H179C240.467 321.334 256.067 319.201 279.267 307.334C340.333 276.134 366.6 199.601 340.467 129.201C328.733 97.6007 298.867 68.4007 266.6 57.0673C249.4 51.0673 242.867 50.4007 187 49.734L133.267 49.0673V63.2007Z" fill="#BFF745"/>
<path d="M304.071 347.668L132 347.935V361.166C132 368.516 132.323 374.797 132.726 375.198C133.129 375.599 212.026 376 307.944 376H482.516L482.758 361.433L483 347L479.531 347.134C477.595 347.134 398.618 347.401 304.071 347.668Z" fill="#BFF745"/>
</svg>
