<svg width="56" height="56" viewBox="0 0 56 56" fill="none" xmlns="http://www.w3.org/2000/svg">
<path d="M21.2119 25.4546C21.2119 25.8375 21.2533 26.1479 21.3257 26.3755C21.4085 26.6032 21.512 26.8515 21.6568 27.1205C21.7086 27.2033 21.7292 27.2861 21.7292 27.3585C21.7292 27.462 21.6672 27.5655 21.5327 27.6689L20.8808 28.1035C20.7877 28.1656 20.6945 28.1966 20.6117 28.1966C20.5083 28.1966 20.4048 28.1449 20.3013 28.0518C20.1565 27.8966 20.0323 27.731 19.9288 27.5655C19.8254 27.3896 19.7219 27.193 19.6081 26.955C18.801 27.9069 17.787 28.3829 16.566 28.3829C15.6968 28.3829 15.0035 28.1346 14.4965 27.6379C13.9895 27.1412 13.7308 26.479 13.7308 25.6512C13.7308 24.7717 14.0413 24.0577 14.6724 23.5197C15.3036 22.9816 16.1417 22.7126 17.2075 22.7126C17.5593 22.7126 17.9215 22.7436 18.3043 22.7954C18.6872 22.8471 19.0804 22.9299 19.4942 23.023V22.2677C19.4942 21.4813 19.3287 20.9329 19.0079 20.6121C18.6768 20.2914 18.1181 20.1361 17.3213 20.1361C16.9592 20.1361 16.5867 20.1775 16.2038 20.2707C15.821 20.3638 15.4485 20.4776 15.0863 20.6225C14.9208 20.6949 14.7966 20.7363 14.7242 20.757C14.6517 20.7777 14.6 20.788 14.5586 20.788C14.4138 20.788 14.3413 20.6845 14.3413 20.4673V19.9602C14.3413 19.7947 14.362 19.6705 14.4138 19.5981C14.4655 19.5257 14.5586 19.4532 14.7035 19.3808C15.0656 19.1945 15.5002 19.0393 16.0072 18.9152C16.5142 18.7807 17.0523 18.7186 17.6214 18.7186C18.8527 18.7186 19.7529 18.9979 20.3324 19.5567C20.9015 20.1154 21.1912 20.9639 21.1912 22.1021V25.4546H21.2119ZM17.0109 27.0274C17.3524 27.0274 17.7042 26.9653 18.0767 26.8412C18.4492 26.717 18.7803 26.4893 19.0597 26.1789C19.2252 25.9823 19.3494 25.765 19.4115 25.5167C19.4736 25.2684 19.5149 24.9683 19.5149 24.6165V24.1819C19.2149 24.1095 18.8941 24.0474 18.563 24.006C18.2319 23.9646 17.9111 23.9439 17.5904 23.9439C16.8971 23.9439 16.3901 24.0784 16.0486 24.3578C15.7072 24.6372 15.5416 25.0304 15.5416 25.5477C15.5416 26.0341 15.6658 26.3962 15.9244 26.6446C16.1728 26.9032 16.5349 27.0274 17.0109 27.0274ZM25.3197 28.1449C25.1335 28.1449 25.0093 28.1139 24.9265 28.0414C24.8438 27.9794 24.7713 27.8345 24.7093 27.6379L22.2777 19.6395C22.2156 19.4325 22.1845 19.298 22.1845 19.2256C22.1845 19.06 22.2673 18.9669 22.4329 18.9669H23.4469C23.6435 18.9669 23.778 18.9979 23.8504 19.0704C23.9332 19.1325 23.9953 19.2773 24.0574 19.4739L25.7957 26.3238L27.4099 19.4739C27.4616 19.267 27.5237 19.1325 27.6065 19.0704C27.6893 19.0083 27.8341 18.9669 28.0204 18.9669H28.8481C29.0447 18.9669 29.1793 18.9979 29.262 19.0704C29.3448 19.1325 29.4172 19.2773 29.4586 19.4739L31.0935 26.4066L32.8836 19.4739C32.9457 19.267 33.0181 19.1325 33.0905 19.0704C33.1733 19.0083 33.3078 18.9669 33.4941 18.9669H34.4563C34.6219 18.9669 34.715 19.0497 34.715 19.2256C34.715 19.2773 34.7047 19.3291 34.6943 19.3911C34.684 19.4532 34.6633 19.536 34.6219 19.6498L32.1282 27.6482C32.0661 27.8552 31.9937 27.9897 31.9109 28.0518C31.8282 28.1139 31.6936 28.1553 31.5177 28.1553H30.6279C30.4313 28.1553 30.2968 28.1242 30.214 28.0518C30.1312 27.9794 30.0588 27.8448 30.0174 27.6379L28.4136 20.9639L26.8201 27.6275C26.7684 27.8345 26.7063 27.969 26.6235 28.0414C26.5407 28.1139 26.3959 28.1449 26.2096 28.1449H25.3197ZM38.6159 28.4243C38.0779 28.4243 37.5398 28.3622 37.0225 28.238C36.5051 28.1139 36.1016 27.9794 35.8325 27.8241C35.667 27.731 35.5532 27.6275 35.5118 27.5344C35.4704 27.4413 35.4497 27.3378 35.4497 27.2447V26.717C35.4497 26.4997 35.5325 26.3962 35.6877 26.3962C35.7498 26.3962 35.8118 26.4066 35.8739 26.4273C35.936 26.448 36.0291 26.4893 36.1326 26.5307C36.4844 26.6859 36.8673 26.8101 37.2708 26.8929C37.6847 26.9757 38.0882 27.0171 38.5021 27.0171C39.154 27.0171 39.661 26.9032 40.0128 26.6756C40.3646 26.448 40.5509 26.1168 40.5509 25.6926C40.5509 25.4029 40.4577 25.1649 40.2715 24.9683C40.0852 24.7717 39.7334 24.5958 39.2264 24.4302L37.7261 23.9646C36.9707 23.7266 36.412 23.3748 36.0705 22.9092C35.7291 22.4539 35.5532 21.9469 35.5532 21.4089C35.5532 20.9743 35.6463 20.5914 35.8325 20.2603C36.0188 19.9292 36.2671 19.6395 36.5775 19.4118C36.8879 19.1738 37.2398 18.9979 37.6536 18.8738C38.0675 18.7496 38.5021 18.6979 38.9574 18.6979C39.185 18.6979 39.423 18.7082 39.6507 18.7393C39.8886 18.7703 40.1059 18.8117 40.3232 18.8531C40.5302 18.9048 40.7268 18.9566 40.913 19.0186C41.0993 19.0807 41.2441 19.1428 41.3476 19.2049C41.4925 19.2877 41.5959 19.3704 41.658 19.4636C41.7201 19.5463 41.7512 19.6602 41.7512 19.805V20.2914C41.7512 20.5086 41.6684 20.6225 41.5132 20.6225C41.4304 20.6225 41.2959 20.5811 41.12 20.4983C40.5302 20.2293 39.868 20.0948 39.1333 20.0948C38.5435 20.0948 38.0779 20.1879 37.7571 20.3845C37.4364 20.5811 37.2708 20.8811 37.2708 21.3054C37.2708 21.5951 37.3743 21.8434 37.5812 22.04C37.7882 22.2366 38.171 22.4332 38.7194 22.6091L40.1887 23.0748C40.9337 23.3127 41.4718 23.6439 41.7925 24.0681C42.1133 24.4923 42.2685 24.9787 42.2685 25.5167C42.2685 25.9616 42.1754 26.3652 41.9995 26.717C41.8132 27.0688 41.5649 27.3792 41.2441 27.6275C40.9234 27.8862 40.5405 28.0725 40.0956 28.207C39.63 28.3519 39.1436 28.4243 38.6159 28.4243Z" fill="white"/>
<path fill-rule="evenodd" clip-rule="evenodd" d="M40.5715 33.453C37.1673 35.9673 32.2213 37.3021 27.9686 37.3021C22.0086 37.3021 16.6384 35.0982 12.5823 31.4353C12.2615 31.1455 12.5512 30.7523 12.9341 30.98C17.3213 33.5254 22.7329 35.0671 28.3308 35.0671C32.1075 35.0671 36.2567 34.2807 40.0749 32.6666C40.644 32.4079 41.1303 33.0391 40.5715 33.453Z" fill="#FF9900"/>
<path fill-rule="evenodd" clip-rule="evenodd" d="M41.9891 31.8388C41.5545 31.2801 39.1126 31.5698 38.0055 31.7043C37.6743 31.7457 37.6226 31.456 37.9227 31.2387C39.8679 29.8728 43.0652 30.266 43.4377 30.7213C43.8102 31.1869 43.3342 34.3842 41.5131 35.9156C41.2338 36.1536 40.9647 36.0294 41.0889 35.719C41.5028 34.6946 42.4237 32.3872 41.9891 31.8388Z" fill="#FF9900"/>
</svg>
