<svg width="56" height="56" viewBox="0 0 56 56" fill="none" xmlns="http://www.w3.org/2000/svg">
<path d="M28 30.7429C29.5149 30.7429 30.7429 29.5149 30.7429 28C30.7429 26.4852 29.5149 25.2572 28 25.2572C26.4852 25.2572 25.2572 26.4852 25.2572 28C25.2572 29.5149 26.4852 30.7429 28 30.7429Z" fill="#61DAFB"/>
<path fill-rule="evenodd" clip-rule="evenodd" d="M15.1091 26.5549C14.4879 27.1156 14.2824 27.6056 14.2824 27.9999C14.2824 28.3943 14.4879 28.8843 15.1091 29.445C15.7301 30.0056 16.6849 30.5563 17.9498 31.0393C20.4728 32.0026 24.0258 32.6194 28 32.6194C31.9743 32.6194 35.5273 32.0026 38.0502 31.0393C39.3152 30.5563 40.27 30.0056 40.891 29.445C41.5121 28.8843 41.7176 28.3943 41.7176 27.9999C41.7176 27.6056 41.5121 27.1156 40.891 26.5549C40.27 25.9943 39.3152 25.4436 38.0502 24.9606C35.5273 23.9973 31.9743 23.3805 28 23.3805C24.0258 23.3805 20.4728 23.9973 17.9498 24.9606C16.6849 25.4436 15.7301 25.9943 15.1091 26.5549ZM17.2364 23.0922C20.0401 22.0217 23.8459 21.3805 28 21.3805C32.1541 21.3805 35.9599 22.0217 38.7636 23.0922C40.1621 23.6261 41.3626 24.2863 42.2311 25.0703C43.0995 25.8542 43.7176 26.8425 43.7176 27.9999C43.7176 29.1574 43.0995 30.1457 42.2311 30.9296C41.3626 31.7136 40.1621 32.3738 38.7636 32.9077C35.9599 33.9782 32.1541 34.6194 28 34.6194C23.8459 34.6194 20.0401 33.9782 17.2364 32.9077C15.838 32.3738 14.6374 31.7136 13.7689 30.9296C12.9005 30.1457 12.2824 29.1574 12.2824 27.9999C12.2824 26.8425 12.9005 25.8542 13.7689 25.0703C14.6374 24.2863 15.838 23.6261 17.2364 23.0922Z" fill="#61DAFB"/>
<path fill-rule="evenodd" clip-rule="evenodd" d="M22.806 16.1135C22.0099 15.856 21.4827 15.923 21.1412 16.1201C20.7997 16.3173 20.4781 16.7403 20.3031 17.5586C20.1281 18.3767 20.1286 19.4789 20.3428 20.8159C20.77 23.4825 22.0124 26.8679 23.9995 30.3097C25.9866 33.7515 28.2973 36.5201 30.393 38.2234C31.4437 39.0773 32.398 39.6289 33.1941 39.8864C33.9902 40.1439 34.5173 40.0769 34.8588 39.8798C35.2004 39.6826 35.5219 39.2596 35.697 38.4413C35.872 37.6232 35.8715 36.521 35.6573 35.184C35.2301 32.5174 33.9877 29.132 32.0006 25.6902C30.0135 22.2484 27.7028 19.4798 25.6071 17.7765C24.5563 16.9226 23.602 16.371 22.806 16.1135ZM26.8685 16.2245C29.1974 18.1173 31.6556 21.0927 33.7326 24.6902C35.8097 28.2878 37.1573 31.9043 37.6321 34.8676C37.8689 36.3457 37.8974 37.7155 37.6527 38.8596C37.408 40.0036 36.8612 41.0331 35.8588 41.6118C34.8565 42.1905 33.6915 42.1494 32.5785 41.7893C31.4652 41.4291 30.2932 40.7195 29.1316 39.7754C26.8026 37.8826 24.3445 34.9072 22.2674 31.3097C20.1904 27.7121 18.8427 24.0956 18.368 21.1323C18.1312 19.6542 18.1026 18.2844 18.3473 17.1403C18.592 15.9963 19.1389 14.9668 20.1412 14.3881C21.1436 13.8094 22.3085 13.8505 23.4216 14.2106C24.5348 14.5708 25.7068 15.2804 26.8685 16.2245Z" fill="#61DAFB"/>
<path fill-rule="evenodd" clip-rule="evenodd" d="M35.6969 17.5586C35.5219 16.7404 35.2003 16.3174 34.8588 16.1202C34.5173 15.923 33.9902 15.856 33.194 16.1136C32.398 16.3711 31.4437 16.9226 30.393 17.7766C28.2972 19.4799 25.9866 22.2485 23.9994 25.6903C22.0123 29.1321 20.77 32.5175 20.3428 35.1841C20.1286 36.521 20.1281 37.6232 20.3031 38.4414C20.4781 39.2596 20.7997 39.6826 21.1412 39.8798C21.4827 40.077 22.0098 40.144 22.806 39.8864C23.602 39.6289 24.5563 39.0774 25.607 38.2234C27.7028 36.5201 30.0135 33.7515 32.0006 30.3097C33.9877 26.8679 35.23 23.4825 35.6573 20.8159C35.8715 19.479 35.8719 18.3768 35.6969 17.5586ZM37.6321 21.1323C37.1573 24.0957 35.8097 27.7122 33.7326 31.3097C31.6556 34.9073 29.1974 37.8826 26.8685 39.7755C25.7068 40.7196 24.5348 41.4292 23.4216 41.7893C22.3085 42.1494 21.1436 42.1906 20.1412 41.6119C19.1388 41.0331 18.592 40.0037 18.3473 38.8597C18.1026 37.7156 18.1311 36.3457 18.3679 34.8677C18.8427 31.9043 20.1904 28.2878 22.2674 24.6903C24.3444 21.0927 26.8026 18.1174 29.1316 16.2245C30.2932 15.2804 31.4652 14.5708 32.5784 14.2107C33.6915 13.8506 34.8565 13.8094 35.8588 14.3881C36.8612 14.9669 37.408 15.9963 37.6527 17.1403C37.8974 18.2844 37.8689 19.6543 37.6321 21.1323Z" fill="#61DAFB"/>
</svg>
