<svg width="56" height="56" viewBox="0 0 56 56" fill="none" xmlns="http://www.w3.org/2000/svg">
<path d="M42.3366 35.178C40.6763 36.0434 32.0756 39.5798 30.2445 40.5344C28.4134 41.4891 27.3962 41.4799 25.9497 40.7884C24.5033 40.0969 15.3505 36.3998 13.7018 35.6117C12.8778 35.2179 12.4444 34.8854 12.4444 34.5714V31.4267C12.4444 31.4267 24.3602 28.8327 26.2839 28.1426C28.2074 27.4524 28.8749 27.4275 30.5119 28.0271C32.1491 28.627 41.9377 30.393 43.5556 30.9856L43.5548 34.0858C43.5551 34.3966 43.1817 34.7376 42.3366 35.178Z" fill="#912626"/>
<path d="M42.336 32.052C40.6758 32.917 32.0753 36.4535 30.2443 37.4079C28.4133 38.3628 27.3961 38.3534 25.9497 37.6619C24.5032 36.9709 15.3508 33.2732 13.7021 32.4856C12.0535 31.6975 12.019 31.1551 13.6385 30.521C15.2579 29.8866 24.3601 26.3155 26.284 25.6253C28.2076 24.9354 28.8749 24.9103 30.5119 25.5101C32.149 26.1098 40.6982 29.5126 42.3159 30.1051C43.9341 30.6983 43.9962 31.1867 42.336 32.052Z" fill="#C6302B"/>
<path d="M42.3366 30.0898C40.6763 30.9554 32.0756 34.4916 30.2445 35.4465C28.4134 36.4009 27.3962 36.3917 25.9497 35.7002C24.5032 35.009 15.3505 31.3116 13.7018 30.5234C12.8778 30.1297 12.4444 29.7977 12.4444 29.4835V26.3385C12.4444 26.3385 24.3602 23.7446 26.2839 23.0545C28.2074 22.3643 28.8749 22.3393 30.5119 22.939C32.1492 23.5388 41.9378 25.3044 43.5556 25.8971L43.5548 28.9977C43.5551 29.3084 43.1817 29.6494 42.3366 30.0898Z" fill="#912626"/>
<path d="M42.336 26.9638C40.6758 27.8291 32.0753 31.3653 30.2443 32.3201C28.4133 33.2746 27.3961 33.2652 25.9497 32.5737C24.5032 31.8827 15.3508 28.1851 13.7021 27.3974C12.0535 26.6095 12.019 26.067 13.6385 25.4327C15.2579 24.7986 24.3602 21.2273 26.284 20.5373C28.2076 19.8472 28.8749 19.8222 30.5119 20.4219C32.149 21.0216 40.6982 24.4242 42.3159 25.0169C43.9341 25.61 43.9962 26.0985 42.336 26.9638Z" fill="#C6302B"/>
<path d="M42.3366 24.813C40.6763 25.6783 32.0756 29.2147 30.2445 30.1697C28.4134 31.1242 27.3962 31.1148 25.9497 30.4233C24.5032 29.7322 15.3505 26.0346 13.7018 25.2468C12.8778 24.8527 12.4444 24.5206 12.4444 24.2068V21.0617C12.4444 21.0617 24.3602 18.4679 26.2839 17.7779C28.2074 17.0876 28.8749 17.0628 30.5119 17.6624C32.1492 18.2621 41.9378 20.0278 43.5556 20.6205L43.5548 23.7209C43.5551 24.0314 43.1817 24.3724 42.3366 24.813Z" fill="#912626"/>
<path d="M42.336 21.6869C40.6758 22.5522 32.0753 26.0886 30.2442 27.0431C28.4133 27.9976 27.3961 27.9882 25.9497 27.2971C24.5033 26.6056 15.3508 22.9083 13.7023 22.1204C12.0535 21.3327 12.0191 20.79 13.6384 20.1558C15.2579 19.5216 24.3602 15.9508 26.284 15.2605C28.2076 14.5704 28.8749 14.5456 30.5119 15.1453C32.149 15.745 40.6982 19.1477 42.3158 19.7404C43.9341 20.333 43.9962 20.8216 42.336 21.6869Z" fill="#C6302B"/>
<path d="M31.8018 18.6277L29.1269 18.9054L28.5282 20.3462L27.5611 18.7384L24.4724 18.4608L26.7771 17.6297L26.0856 16.3539L28.2433 17.1978L30.2774 16.5318L29.7277 17.851L31.8018 18.6277ZM28.3685 25.6177L23.3765 23.5472L30.5296 22.4492L28.3685 25.6177ZM21.4475 19.4285C23.559 19.4285 25.2707 20.0921 25.2707 20.9104C25.2707 21.729 23.559 22.3925 21.4475 22.3925C19.3359 22.3925 17.6242 21.7289 17.6242 20.9104C17.6242 20.0921 19.3359 19.4285 21.4475 19.4285Z" fill="#1E2235"/>
<path d="M34.9629 19.0216L39.1965 20.6946L34.9666 22.3659L34.9629 19.0215" fill="#621B1C"/>
<path d="M30.2793 20.8743L34.9629 19.0216L34.9666 22.3659L34.5073 22.5456L30.2793 20.8743Z" fill="#9A2928"/>
</svg>
